<svg width="137" height="125" viewBox="0 0 137 125" fill="none" xmlns="http://www.w3.org/2000/svg">
<path d="M133.191 69.0373C132.26 68.364 131.294 67.7785 130.318 67.2691C131.294 66.7538 132.26 66.1742 133.191 65.5008C137.426 62.4386 137.465 58.5977 136.215 56.2381C134.318 52.6665 129.532 51.7648 124.583 54.0424C122.167 55.1549 119.919 57.052 118.106 58.9197C116.243 57.1866 113.827 56.0683 111.194 55.8517C110.513 53.5623 109.626 51.3316 108.56 49.1827C108.917 49.2354 109.274 49.2706 109.637 49.2706C110.055 49.2706 110.48 49.2354 110.904 49.1593C112.265 48.9193 113.526 48.2986 114.641 47.315C115.701 46.3782 116.46 45.2833 116.884 44.0537C116.951 43.8605 117.001 43.6673 117.051 43.4682C118.602 46.3255 121.526 48.2576 124.879 48.2576C129.85 48.2576 133.889 44.0127 133.889 38.8017C133.889 35.5638 132.327 32.7007 129.956 30.9969C131.356 29.6209 132.232 27.6712 132.232 25.5107C132.232 21.3594 129.013 17.981 125.057 17.981C122.117 17.981 119.59 19.843 118.485 22.507C118.418 22.507 118.351 22.4953 118.279 22.4953C114.775 22.4953 111.857 25.1418 111.233 28.6314C111.199 27.6478 110.97 26.6641 110.546 25.698C110.016 24.4977 109.185 23.4028 108.075 22.4485C107.132 21.6346 106.117 21.0198 105.062 20.6392C103.779 20.1708 102.563 20.0947 101.425 20.4226C101.308 20.4577 101.196 20.5104 101.085 20.5514C101.079 20.5104 101.079 20.4636 101.073 20.4226C100.688 17.9225 99.2826 15.8849 97.012 14.5265C94.7413 13.1682 92.3536 12.9398 90.1053 13.8649C89.7482 14.0113 89.3967 14.1987 89.0564 14.3977C89.0341 14.2104 89.0006 14.0172 88.9616 13.8298C88.6826 12.5358 88.0634 11.359 87.1261 10.3285C86.2502 9.37408 85.1233 8.62463 83.7843 8.09768C82.6406 7.64684 81.4914 7.41849 80.3756 7.41263H80.3421C78.992 7.41263 77.8316 7.75808 76.872 8.44313C76.4871 8.72417 76.1356 9.06962 75.8399 9.45605C75.5108 9.88347 75.2542 10.3402 75.0868 10.8086C74.7186 11.8391 74.7409 12.9515 75.1537 14.0289C75.4717 14.8544 75.9906 15.6039 76.6991 16.2538L76.8163 16.365C76.3588 16.4939 75.9292 16.611 75.5219 16.7046C74.9919 16.8334 74.5735 16.9271 74.2611 16.9857L72.7269 17.296L72.5818 17.7059C71.6892 17.2082 70.6906 16.9271 69.6417 16.9271H69.2345C68.9723 13.3965 68.6766 9.33895 68.5315 7.38336C68.314 4.45582 65.9485 2.16063 63.1479 2.16063H51.5437C50.2494 0.778833 48.5925 0.000106812 46.8016 0.000106812C42.6676 0.000106812 39.4263 4.17478 39.4263 9.50875C39.4263 14.3509 42.0986 18.2445 45.6858 18.9179C44.6593 19.9952 43.9508 21.4531 43.7276 23.1218L43.5156 24.7319C36.8377 26.6524 31.1193 29.6678 26.5055 33.7078L24.988 35.0193C19.1134 35.6224 13.1328 39.0183 8.36839 44.5162C2.97357 50.7402 0 58.6328 0 66.7362C0 79.026 6.68913 89.3895 14.9236 94.7118C9.04902 95.4144 4.66956 99.4017 4.66956 104.379C4.66956 109.871 9.98628 114.174 16.7703 114.174C19.4928 114.174 22.0423 113.466 24.0954 112.224C25.3395 113.144 26.9295 113.372 28.3912 112.822C28.1624 113.583 28.0285 114.379 28.0285 115.205C28.0285 120.697 33.3452 125 40.1292 125C42.8517 125 45.4013 124.292 47.4544 123.05C48.7487 124.005 50.4223 124.227 51.9287 123.583C53.7083 122.822 54.8576 121.03 54.8576 119.01V111.914C57.4741 112.213 60.1632 112.371 62.9247 112.371C80.5318 112.371 97.3802 103.412 106.306 89.4305C108.047 93.0841 112.376 95.6135 117.576 95.6135C120.298 95.6135 122.848 94.905 124.901 93.6637C126.195 94.624 127.875 94.8406 129.381 94.1966C131.161 93.4354 132.31 91.6437 132.31 89.6237V81.8248C132.31 81.696 132.293 81.5672 132.282 81.4383C134 80.9407 135.395 79.9043 136.226 78.3352C137.482 75.9756 137.437 72.1346 133.202 69.0724L133.191 69.0373ZM51.4544 16.9271C51.4544 16.9271 51.4656 16.9154 51.4712 16.9096H51.9063L51.4544 16.9271ZM90.903 24.4509L92.2755 27.0037L90.903 24.4568V24.4509Z" fill="white"/>
<path d="M65.4136 22.2667C65.1681 18.9995 64.5656 10.779 64.3424 7.7168C64.2922 7.05518 63.7678 6.53993 63.1318 6.53993H48.6601C47.9906 6.53993 47.4438 7.10787 47.4438 7.81634V11.2416C47.4438 11.9442 47.985 12.518 48.6601 12.518H55.1372C55.8513 12.518 56.4092 13.1562 56.3478 13.8998L55.6728 22.2491C55.6114 22.9927 56.1693 23.6309 56.8834 23.6309H64.2029C64.9115 23.6309 65.4694 23.0044 65.4136 22.2608V22.2667Z" fill="#3B087D"/>
<path d="M46.7848 14.6201C48.5473 14.6201 49.976 12.329 49.976 9.5028C49.976 6.67658 48.5473 4.38547 46.7848 4.38547C45.0224 4.38547 43.5937 6.67658 43.5937 9.5028C43.5937 12.329 45.0224 14.6201 46.7848 14.6201Z" fill="#3B087D"/>
<path d="M46.4003 13.0744C47.5126 13.0744 48.4142 11.4753 48.4142 9.50276C48.4142 7.53022 47.5126 5.93117 46.4003 5.93117C45.288 5.93117 44.3863 7.53022 44.3863 9.50276C44.3863 11.4753 45.288 13.0744 46.4003 13.0744Z" fill="#6EF1FA"/>
<path d="M108.689 67.2746C108.689 73.9435 106.814 80.2377 103.534 85.7942C95.7681 98.9447 80.1304 107.95 62.9138 107.95C49.569 107.95 37.128 104.208 28.5867 96.2397C28.146 95.8357 27.722 95.42 27.3091 94.9925C27.0413 94.7173 26.7791 94.4363 26.5169 94.1494C26.4555 94.1494 26.3886 94.1435 26.3272 94.1435C15.9114 93.7747 4.17331 81.643 4.17331 66.7242C4.17331 51.8055 16.1066 39.504 26.5839 39.3049C26.6731 39.2991 26.7568 39.2991 26.8461 39.2991C27.5769 38.5262 28.3468 37.7885 29.1502 37.0858C33.9983 32.8468 40.1406 29.9251 47.2594 28.2681C48.1687 28.0515 49.1004 27.8582 50.0432 27.6884C50.9582 27.5186 51.8843 27.3723 52.8327 27.2435C54.1884 27.0561 55.572 26.9097 56.989 26.8102C58.9137 26.658 60.8943 26.5877 62.9138 26.5877C63.0142 26.5877 63.1202 26.5877 63.2207 26.5935C66.4174 26.6111 69.5639 26.939 72.61 27.5538C92.7611 31.5821 108.689 47.8416 108.689 67.2746Z" fill="#3578A7"/>
<path d="M70.9643 34.914H49.1451C47.689 34.914 46.5844 33.3448 46.8131 31.6058L47.8619 23.7191C48.046 22.3373 49.0335 21.3185 50.1939 21.3185H69.6198C70.7411 21.3185 71.7063 22.2729 71.935 23.5961L73.2795 31.4829C73.5808 33.2511 72.4594 34.914 70.9643 34.914Z" fill="#3B087D"/>
<path d="M31.4156 47.9941C29.3458 44.2937 24.6651 42.865 20.81 44.7621C15.0079 47.6135 7.21976 53.6442 7.21976 65.4597C7.21976 76.0047 13.4291 83.1714 18.8853 87.4338C23.0528 90.6893 29.2007 89.1435 31.2705 84.3424C33.357 79.5002 35.4268 72.843 35.4268 65.4597C35.4268 57.2744 33.4519 51.6359 31.4156 47.9941Z" fill="#3B087D"/>
<path d="M29.1505 37.0862C33.1506 38.5851 36.5258 41.7878 38.2888 45.8571C38.5454 46.589 38.9025 47.3853 39.1033 48.1289L39.4771 49.6805C39.7281 50.5822 39.7951 51.8878 39.9346 52.8188C39.9848 53.8669 39.9848 54.9208 40.0071 55.963H38.7463C38.6347 54.5285 38.5454 52.9418 38.2163 51.5365C38.127 51.0506 38.0545 50.5646 37.8871 50.1079C36.4477 44.5046 32.0906 40.1601 26.5786 39.3463V39.3053L29.1505 37.0862Z" fill="#3B087D"/>
<path d="M39.9347 81.0869C39.957 82.0061 39.8901 82.9254 39.7115 83.8329C38.3893 89.6938 33.5468 93.6402 28.5872 96.2398C27.8675 95.5782 27.1813 94.8814 26.5174 94.1496C26.456 94.1496 26.3891 94.1437 26.3277 94.1437C31.9066 92.0652 38.4228 87.9373 38.8189 81.0869H39.9347Z" fill="#3B087D"/>
<path d="M40.5203 62.8016C41.6528 66.4142 41.8257 70.5011 40.5203 74.0902L38.8912 73.8677C38.6346 72.0409 38.6346 70.2727 38.6346 68.4459C38.6569 66.625 38.6569 64.8275 38.8856 62.9949L40.5203 62.8016Z" fill="#3B087D"/>
<path d="M69.4702 25.979C64.6891 26.6523 59.8745 26.7987 55.0654 26.828C54.4685 26.8162 53.799 26.8572 53.2356 27.068C52.8171 27.1851 52.4991 27.4896 52.3374 27.5306C52.1086 28.7133 51.6567 29.8375 51.1881 30.9499L50.1169 30.7567C49.9998 29.6091 50.0165 28.4732 50.0611 27.3256L50.0444 27.5247C49.9998 26.6816 50.407 25.9029 50.8255 25.4579C51.9691 24.2517 53.5145 23.8419 55.0654 23.9004C56.6666 23.9121 58.2678 23.9238 59.8689 23.9882C63.0824 24.0995 66.2791 24.2927 69.4758 24.7553V25.9731L69.4702 25.979Z" fill="#3578A7"/>
<path d="M109.833 60.2078C111.2 65.0206 111.2 69.8335 109.833 74.6522C114.425 74.8747 117.945 70.8054 117.594 66.7362C117.276 63.0943 113.901 59.9618 109.833 60.2136V60.2078Z" fill="#3B087D"/>
<path d="M120.455 65.981C119.238 66.1918 118.424 65.0208 119.166 64.1308C120.817 62.1459 123.478 59.3472 126.268 58.0649C131.668 55.5765 135.094 58.7968 130.826 61.8825C127.339 64.4001 123.194 65.5009 120.46 65.981H120.455Z" fill="#FED220"/>
<path d="M120.455 68.5569C119.238 68.3461 118.424 69.5171 119.166 70.4071C120.817 72.392 123.478 75.1907 126.268 76.4729C131.668 78.9613 135.094 75.7411 130.826 72.6554C127.339 70.1377 123.194 69.037 120.46 68.5569H120.455Z" fill="#FED220"/>
<path d="M97.38 80.7412H92.6826V68.2348H78.7966V80.7412H74.0992V54.6159C74.0992 53.8957 74.3279 53.3395 74.7909 52.9413C75.2484 52.5432 75.8509 52.3383 76.5874 52.3383C76.9556 52.3383 77.3293 52.3851 77.7143 52.4846C78.0937 52.5842 78.4563 52.7013 78.7966 52.8359V63.7264H92.6826V54.6159C92.6826 53.8957 92.9113 53.3395 93.3743 52.9413C93.8318 52.5432 94.4343 52.3383 95.1708 52.3383C95.539 52.3383 95.9128 52.3851 96.2977 52.4846C96.6771 52.5842 97.0397 52.7013 97.38 52.8359V80.7412Z" fill="white"/>
<path d="M51.3266 54.622C51.3266 52.7425 52.2862 51.8057 54.2053 51.8057H68.2085C69.7873 51.8057 70.5739 52.5493 70.5739 54.0423C70.5739 54.8679 70.3787 55.6291 69.9826 56.32H56.0966V63.8555H67.0648C68.6436 63.8555 69.4302 64.599 69.4302 66.0921C69.4302 66.9177 69.235 67.6788 68.8389 68.3697H56.0966V80.2087H51.321V54.622H51.3266Z" fill="white"/>
<path d="M93.6361 80.7414H88.7825C87.9735 80.3433 87.0307 80.232 87.0307 78.9615C87.0307 77.2167 90.3446 76.2213 90.3446 73.7856C90.3446 72.1286 88.7322 68.5277 88.7322 68.5277C88.7322 68.5277 93.6529 72.556 93.6529 74.8688C93.6529 78.1945 91.2316 77.6499 91.2316 78.6746C91.2316 79.6992 92.6598 79.9685 93.6361 80.7414Z" fill="#6EF1FA"/>
<path d="M98.1885 78.5574C98.1885 79.4298 98.4451 80.1558 98.8021 80.7414H94.3892C93.9262 80.0387 93.5524 79.2073 93.5524 78.3759C93.5524 75.8992 96.8607 76.0573 96.8607 74.5116C96.8607 73.4869 94.4394 74.0314 94.4394 70.7058C94.4394 68.3989 99.3656 64.3647 99.3656 64.3647C99.3656 64.3647 97.7533 67.9656 97.7533 69.6226C97.7533 72.0583 101.062 73.0536 101.062 74.7985C101.062 77.0175 98.1885 75.6943 98.1885 78.5574Z" fill="#6EF1FA"/>
<path d="M89.7199 79.1662C90.1718 79.5409 90.7576 79.6873 91.282 80.0854C91.5386 80.2787 91.7506 80.4953 91.918 80.7412H90.7632C90.2611 80.4543 89.6362 80.2669 89.1453 79.9273C88.3977 79.4121 88.3754 78.1708 88.8942 77.4741C89.5637 76.5782 90.3782 76.2855 90.9473 75.8347C92.275 74.9037 91.6948 73.0652 90.8692 71.8883L90.9361 71.8005C92.554 72.7256 93.3295 75.4541 91.6391 76.7598C90.8636 77.5151 88.9388 78.1123 89.7199 79.1662Z" fill="#3B087D"/>
<path d="M98.9478 75.7705C98.1333 76.3443 96.9226 76.4731 96.56 77.3748C96.1193 78.5048 96.2699 79.6817 96.7664 80.7414H96.2587C95.9017 80.0505 95.6897 79.2894 95.6841 78.4697C95.6339 77.527 96.0189 76.4438 96.8166 75.9227C97.3411 75.5246 97.9213 75.3782 98.3787 75.0035C99.1542 73.9495 97.2295 73.3582 96.4596 72.597C94.7636 71.2913 95.5446 68.5629 97.157 67.6378L97.2295 67.7315C96.3982 68.9025 95.818 70.7468 97.1514 71.6719C97.7204 72.1228 98.5294 72.4155 99.2044 73.3113C99.7177 74.0139 99.6954 75.2494 98.9478 75.7705Z" fill="#3B087D"/>
<path d="M54.1984 80.2616H59.052C59.861 79.8634 60.8038 79.7522 60.8038 78.4816C60.8038 76.7368 57.4899 75.7415 57.4899 73.3058C57.4899 71.6488 59.1023 68.0479 59.1023 68.0479C59.1023 68.0479 54.1816 72.0762 54.1816 74.3889C54.1816 77.7146 56.6029 77.1701 56.6029 78.1947C56.6029 79.2194 55.1747 79.4887 54.1984 80.2616Z" fill="#6EF1FA"/>
<path d="M49.6472 78.0775C49.6472 78.9499 49.3905 79.676 49.0335 80.2615H53.4464C53.9095 79.5589 54.2833 78.7274 54.2833 77.896C54.2833 75.4193 50.975 75.5774 50.975 74.0317C50.975 73.007 53.3962 73.5516 53.3962 70.2259C53.3962 67.919 48.47 63.8848 48.47 63.8848C48.47 63.8848 50.0823 67.4857 50.0823 69.1427C50.0823 71.5784 46.774 72.5738 46.774 74.3186C46.774 76.5376 49.6472 75.2144 49.6472 78.0775Z" fill="#6EF1FA"/>
<path d="M58.1159 78.6863C57.664 79.0611 57.0782 79.2074 56.5538 79.6056C56.2971 79.7988 56.0851 80.0154 55.9178 80.2614H57.0726C57.5747 79.9745 58.1996 79.7871 58.6905 79.4475C59.4381 78.9322 59.4604 77.691 58.9416 76.9942C58.2721 76.0984 57.4576 75.8056 56.8885 75.3548C55.5607 74.4238 56.1409 72.5853 56.9666 71.4085L56.8997 71.3206C55.2818 72.2458 54.5063 74.9742 56.1967 76.2799C56.9722 77.0352 58.8969 77.6324 58.1159 78.6863Z" fill="#3B087D"/>
<path d="M48.8873 75.2906C49.7018 75.8644 50.9124 75.9932 51.275 76.8949C51.7158 78.025 51.5651 79.2018 51.0686 80.2616H51.5763C51.9333 79.5707 52.1453 78.8095 52.1509 77.9898C52.2011 77.0471 51.8162 75.964 51.0184 75.4429C50.494 75.0447 49.9138 74.8983 49.4563 74.5236C48.6808 73.4697 50.6056 72.8783 51.3755 72.1172C53.0714 70.8115 52.2904 68.083 50.6781 67.1579L50.6056 67.2516C51.4368 68.4226 52.017 70.267 50.6837 71.1921C50.1146 71.6429 49.3057 71.9357 48.6306 72.8315C48.1174 73.5341 48.1397 74.7695 48.8873 75.2906Z" fill="#3B087D"/>
<mask id="mask0_2449_3684" style="mask-type:luminance" maskUnits="userSpaceOnUse" x="7" y="43" width="29" height="47">
<path d="M31.4153 47.9939C29.3455 44.2935 24.6648 42.8649 20.8097 44.7619C15.0076 47.6134 7.21945 53.6441 7.21945 65.4596C7.21945 76.0046 13.4288 83.1712 18.885 87.4337C23.0524 90.6891 29.2004 89.1434 31.2702 84.3422C33.3567 79.5001 35.4265 72.8429 35.4265 65.4596C35.4265 57.2742 33.4516 51.6358 31.4153 47.9939Z" fill="white"/>
</mask>
<g mask="url(#mask0_2449_3684)">
<path d="M17.6194 54.4407C17.6194 54.4407 19.9235 51.9464 21.7478 52.3445C23.5721 52.7427 23.4996 54.7217 23.4996 54.7217L17.6194 54.4407Z" fill="#D77D58"/>
<path d="M34.1275 82.5218C28.2027 90.8711 20.8943 92.8092 10.9917 83.2068L10.6514 70.636C6.94137 68.7506 8.79357 61.1625 10.802 60.6414C11.0865 56.4608 16.1689 54.0837 19.2708 54.3179C22.3727 54.5521 25.1231 54.6106 25.1231 54.6106H25.1287C25.3574 54.4408 30.2557 54.7336 32.186 56.8941C34.1107 59.0312 30.1162 61.303 29.9433 61.6075C29.9433 61.6075 32.9392 64.9156 29.8986 69.1546L34.1219 82.5159L34.1275 82.5218Z" fill="#F3A370"/>
<path d="M18.4119 62.5502C18.3784 62.5502 18.3394 62.5502 18.3059 62.5326C18.0995 62.4741 17.9767 62.2457 18.0325 62.0291C18.0493 61.9647 18.4621 60.4658 20.0744 60.1203C21.5919 59.7924 22.875 60.5302 22.9308 60.5595C23.1205 60.6707 23.1875 60.9166 23.0815 61.1157C22.9755 61.3148 22.7411 61.385 22.5515 61.2738C22.5403 61.2738 21.4636 60.659 20.2306 60.9225C19.0925 61.1625 18.7968 62.2047 18.7857 62.2516C18.7355 62.4331 18.5793 62.5502 18.4119 62.5502Z" fill="#C66544"/>
<path d="M16.4587 65.7528C15.9343 67.8957 14.4559 69.4181 12.944 69.5176C12.7264 69.5469 12.5033 69.5293 12.2913 69.4766C12.2411 69.4766 12.1908 69.4649 12.1462 69.4532C10.3833 68.9789 9.45717 66.5432 10.0764 64.0255C10.6957 61.5079 12.626 59.8509 14.3889 60.3251C16.1519 60.7994 17.0724 63.2293 16.4531 65.7469L16.4587 65.7528Z" fill="#D77D58"/>
<path d="M17.3728 69.1372C17.3616 69.1724 17.1217 69.9921 15.7326 70.519C14.5498 70.964 13.3448 70.2263 12.9766 69.9686C12.8594 68.3585 13.0324 66.7952 13.5066 65.2085L12.8761 65.0035C12.3796 66.6722 12.2011 68.3117 12.3238 70.0096C12.0951 70.2028 11.4647 70.6127 10.5999 70.2146C9.47857 69.7052 9.21636 68.0599 9.21636 68.0423L8.56363 68.1477C8.57479 68.2297 8.88163 70.1853 10.3377 70.8469C10.4772 70.9113 10.6111 70.9581 10.7394 70.9933C11.6544 71.2392 12.3461 70.8469 12.6753 70.5951C12.9431 70.7766 13.434 71.0694 14.0421 71.2333C14.6056 71.3856 15.2751 71.4324 15.9501 71.1748C17.6963 70.5132 17.992 69.3714 18.0088 69.3246C18.1482 68.7742 17.5122 68.5986 17.3728 69.1489V69.1372Z" fill="#C66544"/>
<path d="M29.9263 61.666C29.3739 59.9505 28.5371 56.6423 25.0056 54.6048C25.0056 54.394 31.784 54.6341 32.5986 57.544C33.3182 60.1027 30.8021 61.5138 29.9207 61.6601L29.9263 61.666Z" fill="#D77D58"/>
<path d="M14.4162 64.4996C14.3437 64.3591 14.1763 64.3064 14.0369 64.3825L13.1442 64.886C13.1442 64.886 13.1163 64.9094 13.1052 64.9212C13.0829 64.9212 13.0605 64.9212 13.0382 64.9212L12.5082 64.1073C12.419 63.9726 12.246 63.9375 12.1233 64.0312C11.995 64.1249 11.9615 64.3064 12.0508 64.4352L12.6142 65.3017C12.2349 66.6835 12.2628 68.077 12.3074 69.4764C12.5194 69.5291 12.7425 69.5408 12.9601 69.5174C12.9099 68.118 13.0829 66.7538 13.4734 65.3661L14.3102 64.8977C14.4441 64.8216 14.4943 64.646 14.4218 64.4996H14.4162Z" fill="#C66544"/>
<path d="M23.5718 62.8309C24.5177 62.8309 25.2846 62.5478 25.2846 62.1986C25.2846 61.8494 24.5177 61.5662 23.5718 61.5662C22.6259 61.5662 21.8591 61.8494 21.8591 62.1986C21.8591 62.5478 22.6259 62.8309 23.5718 62.8309Z" fill="#FF668B"/>
</g>
<path d="M103.534 85.7943C95.7683 98.9448 80.1306 107.95 62.914 107.95C49.5692 107.95 37.1282 104.209 28.5869 96.2398C28.1461 95.8358 27.7221 95.4201 27.3093 94.9927L34.6623 91.6201C34.6623 91.6201 49.6194 94.7877 72.2197 94.7877C86.8309 94.7877 97.4141 91.0112 103.534 85.7943Z" fill="#3B087D"/>
<path d="M41.3404 33.3797C41.8927 34.3692 40.3194 34.8318 38.6346 35.8623C36.9497 36.8928 35.7949 38.1048 35.2426 37.1152C34.6903 36.1257 35.6052 34.4863 37.2901 33.45C38.9749 32.4195 40.7825 32.3843 41.3348 33.3739L41.3404 33.3797Z" fill="white"/>
<path d="M53.9486 48.2224C54.8422 48.2224 55.5665 47.4622 55.5665 46.5244C55.5665 45.5867 54.8422 44.8265 53.9486 44.8265C53.0551 44.8265 52.3307 45.5867 52.3307 46.5244C52.3307 47.4622 53.0551 48.2224 53.9486 48.2224Z" fill="#3B087D"/>
<path d="M74.9478 48.2224C75.8414 48.2224 76.5657 47.4622 76.5657 46.5245C76.5657 45.5867 75.8414 44.8265 74.9478 44.8265C74.0543 44.8265 73.3299 45.5867 73.3299 46.5245C73.3299 47.4622 74.0543 48.2224 74.9478 48.2224Z" fill="#3B087D"/>
<path d="M94.524 48.2224C95.4175 48.2224 96.1419 47.4622 96.1419 46.5245C96.1419 45.5867 95.4175 44.8265 94.524 44.8265C93.6304 44.8265 92.9061 45.5867 92.9061 46.5245C92.9061 47.4622 93.6304 48.2224 94.524 48.2224Z" fill="#3B087D"/>
<path d="M53.9486 87.4924C54.8422 87.4924 55.5665 86.7322 55.5665 85.7944C55.5665 84.8567 54.8422 84.0965 53.9486 84.0965C53.0551 84.0965 52.3307 84.8567 52.3307 85.7944C52.3307 86.7322 53.0551 87.4924 53.9486 87.4924Z" fill="#3B087D"/>
<path d="M74.9478 87.4924C75.8414 87.4924 76.5657 86.7322 76.5657 85.7945C76.5657 84.8567 75.8414 84.0965 74.9478 84.0965C74.0543 84.0965 73.3299 84.8567 73.3299 85.7945C73.3299 86.7322 74.0543 87.4924 74.9478 87.4924Z" fill="#3B087D"/>
<path d="M94.524 87.4924C95.4175 87.4924 96.1419 86.7322 96.1419 85.7945C96.1419 84.8567 95.4175 84.0965 94.524 84.0965C93.6304 84.0965 92.9061 84.8567 92.9061 85.7945C92.9061 86.7322 93.6304 87.4924 94.524 87.4924Z" fill="#3B087D"/>
<g style="mix-blend-mode:screen">
<path d="M31.4156 47.9941C29.3458 44.2937 24.6651 42.865 20.81 44.7621C15.0079 47.6135 7.21976 53.6442 7.21976 65.4597C7.21976 76.0047 13.4291 83.1714 18.8853 87.4338C23.0528 90.6893 29.2007 89.1435 31.2705 84.3424C33.357 79.5002 35.4268 72.843 35.4268 65.4597C35.4268 57.2744 33.4519 51.6359 31.4156 47.9941Z" fill="#3B087D"/>
</g>
<path d="M16.7876 49.5924C17.4627 48.4448 18.6175 47.4729 20.135 46.8112C21.6525 46.1496 23.5437 45.6051 25.3178 45.9447C28.8214 46.6239 25.4182 48.96 21.9203 49.8383C18.4223 50.7166 16.598 53.486 15.6105 53.1171C14.9912 52.8829 15.9731 50.9742 16.7876 49.5924Z" fill="white"/>
<path d="M128.115 81.7897V89.5886C128.115 90.0805 127.546 90.3205 127.222 89.9692L125.03 87.5804C123.947 89.6823 121.013 91.1929 117.565 91.1929C113.191 91.1929 109.649 88.7689 109.649 85.7887C109.649 82.8085 113.186 80.3962 117.565 80.3962C120.991 80.3962 123.897 81.8775 125.002 83.9444L127.211 81.4208C127.529 81.0578 128.115 81.292 128.115 81.7897Z" fill="#3B087D"/>
<path d="M112.321 84.5122C112.996 84.5122 113.163 85.086 113.163 85.7886C113.163 86.4912 112.996 87.065 112.321 87.065C111.646 87.065 111.104 86.4912 111.104 85.7886C111.104 85.086 111.651 84.5122 112.321 84.5122Z" fill="#FED220"/>
<path d="M27.3083 100.368V108.166C27.3083 108.658 26.7392 108.898 26.4156 108.547L24.2231 106.158C23.1408 108.26 20.2063 109.771 16.7585 109.771C12.3846 109.771 8.84201 107.347 8.84201 104.367C8.84201 101.386 12.3791 98.974 16.7585 98.974C20.184 98.974 23.0906 100.455 24.1952 102.522L26.4045 99.9986C26.7225 99.6356 27.3083 99.8698 27.3083 100.368Z" fill="#3B087D"/>
<path d="M11.5194 103.09C12.1945 103.09 12.3618 103.664 12.3618 104.367C12.3618 105.069 12.1945 105.643 11.5194 105.643C10.8444 105.643 10.3032 105.069 10.3032 104.367C10.3032 103.664 10.85 103.09 11.5194 103.09Z" fill="#FED220"/>
<path d="M50.6683 111.188V118.987C50.6683 119.479 50.0993 119.719 49.7757 119.367L47.5832 116.978C46.5009 119.08 43.5664 120.591 40.1186 120.591C35.7447 120.591 32.2021 118.167 32.2021 115.187C32.2021 112.207 35.7391 109.794 40.1186 109.794C43.544 109.794 46.4507 111.276 47.5553 113.342L49.7645 110.819C50.0825 110.456 50.6683 110.69 50.6683 111.188Z" fill="#3B087D"/>
<path d="M34.8739 113.904C35.5489 113.904 35.7163 114.478 35.7163 115.181C35.7163 115.883 35.5489 116.457 34.8739 116.457C34.1988 116.457 33.6577 115.883 33.6577 115.181C33.6577 114.478 34.2044 113.904 34.8739 113.904Z" fill="#FED220"/>
<path d="M82.8814 25.9906L73.8546 22.4424L74.7752 19.8603C75.1155 19.79 75.5674 19.6905 76.1308 19.5558C76.6999 19.4212 77.308 19.2572 77.9663 19.064C78.6246 18.8708 79.2383 18.66 79.8129 18.4258C80.6275 18.0979 81.2858 17.7583 81.799 17.3895C82.3123 17.0264 82.6582 16.5873 82.8423 16.0721C83.0264 15.5568 83.0097 15.0533 82.7865 14.5615C82.5689 14.0696 82.1282 13.6891 81.4699 13.4314C80.3541 12.9923 79.3722 13.2031 78.5242 14.0579C78.1448 13.7066 77.8771 13.3319 77.7264 12.9396C77.5758 12.5415 77.5591 12.1726 77.6818 11.8389C77.7432 11.6632 77.8436 11.4817 77.9831 11.306C78.1225 11.1245 78.2732 10.9723 78.4405 10.8493C78.9147 10.5097 79.5507 10.34 80.3429 10.34C81.1351 10.34 81.9497 10.5097 82.7865 10.8376C83.7461 11.2124 84.516 11.7217 85.0962 12.36C85.6764 12.9982 86.0558 13.7008 86.2231 14.4795C86.3905 15.2524 86.3291 16.0486 86.0334 16.8684C85.8103 17.4949 85.4644 18.0745 85.0069 18.6015C84.5439 19.1284 84.0027 19.5793 83.3779 19.9481C83.0655 20.1296 82.6972 20.317 82.2677 20.5102C81.8381 20.7034 81.3974 20.8849 80.9455 21.0547C80.4992 21.2187 80.0751 21.3651 79.679 21.4822L83.8967 23.1391L82.8758 26.0023L82.8814 25.9906Z" fill="#3B087D"/>
<path d="M86.0719 25.8619C85.8209 24.24 86.2337 22.4367 87.3104 20.4576C88.3872 18.4786 89.6536 17.1847 91.1097 16.5816C92.5658 15.9785 94.0665 16.1424 95.6119 17.0617C97.1572 17.9809 98.0499 19.2573 98.3009 20.8792C98.552 22.5011 98.1391 24.3044 97.0624 26.2834C95.9857 28.2625 94.7192 29.5564 93.2631 30.1595C91.8015 30.7626 90.3007 30.5986 88.7609 29.6794C87.2156 28.7543 86.323 27.4837 86.0719 25.8619ZM92.2701 26.9978C92.9619 26.5879 93.6313 25.7916 94.2673 24.6147C94.9033 23.4379 95.2158 22.4308 95.199 21.5935C95.1823 20.7562 94.8364 20.1356 94.1558 19.7316C93.4807 19.3276 92.7945 19.3276 92.0971 19.7375C91.4054 20.1473 90.7359 20.9436 90.0999 22.1205C89.4583 23.2973 89.1515 24.3044 89.1682 25.1417C89.1849 25.979 89.5308 26.5996 90.2115 27.0036C90.8921 27.4076 91.5727 27.4076 92.2701 26.9919V26.9978Z" fill="#3B087D"/>
<path d="M101.688 39.0647L94.2516 32.63L95.9197 30.5046C96.26 30.5573 96.7174 30.6159 97.2977 30.6803C97.8779 30.7447 98.5027 30.7974 99.1833 30.8384C99.864 30.8793 100.511 30.8852 101.125 30.8618C101.995 30.8325 102.726 30.733 103.323 30.5632C103.92 30.3934 104.383 30.0948 104.718 29.6732C105.052 29.2516 105.192 28.7657 105.136 28.2211C105.08 27.6766 104.785 27.1731 104.243 26.7047C103.328 25.9142 102.335 25.7737 101.264 26.289C101.013 25.8264 100.879 25.3873 100.857 24.9599C100.835 24.5325 100.935 24.1811 101.153 23.9001C101.264 23.7537 101.415 23.6191 101.605 23.4961C101.794 23.3731 101.984 23.2795 102.179 23.2209C102.737 23.0628 103.39 23.1155 104.132 23.3907C104.879 23.66 105.594 24.0992 106.285 24.6964C107.072 25.3756 107.647 26.1192 107.998 26.9213C108.355 27.7235 108.489 28.5198 108.405 29.3102C108.322 30.1006 108.02 30.8325 107.49 31.5058C107.083 32.0211 106.581 32.4544 105.978 32.794C105.376 33.1336 104.729 33.3736 104.026 33.5141C103.68 33.5785 103.267 33.6312 102.798 33.6664C102.33 33.7015 101.856 33.7249 101.381 33.7308C100.907 33.7308 100.461 33.7308 100.054 33.7015L103.529 36.7052L101.677 39.0647H101.688Z" fill="#3B087D"/>
<path d="M112.945 38.1341C113.007 38.1868 113.068 38.2512 113.135 38.3215C113.202 38.3918 113.252 38.4503 113.286 38.4913C113.866 39.2232 114.24 39.9785 114.402 40.7631C114.563 41.5476 114.513 42.3147 114.257 43.0582C114 43.8018 113.531 44.4752 112.845 45.0782C112.109 45.7223 111.311 46.1263 110.441 46.2785C109.57 46.4308 108.717 46.3371 107.874 45.9916C107.032 45.6462 106.279 45.0607 105.615 44.2293C104.956 43.4096 104.538 42.543 104.354 41.6355C104.17 40.7279 104.22 39.8497 104.499 39.0007C104.778 38.1517 105.286 37.4022 106.022 36.7582C106.608 36.2429 107.311 35.8565 108.125 35.5989C108.94 35.3471 110 35.1773 111.305 35.1012L115.077 34.8787C115.791 34.8319 116.365 35.0836 116.806 35.6399C117.052 35.9502 117.241 36.3073 117.375 36.7289C117.509 37.1446 117.559 37.5076 117.52 37.818L112.951 38.14L112.945 38.1341ZM109.208 43.1753C109.777 43.2339 110.307 43.0465 110.798 42.6133C111.289 42.18 111.556 41.6647 111.601 41.0675C111.646 40.4644 111.461 39.9082 111.054 39.3988C110.641 38.8836 110.15 38.5967 109.581 38.544C109.012 38.4854 108.482 38.6728 107.991 39.1061C107.5 39.5393 107.233 40.0546 107.188 40.6518C107.143 41.249 107.327 41.8111 107.735 42.3205C108.148 42.8358 108.639 43.1168 109.208 43.1753Z" fill="#3B087D"/>
<path d="M124.868 43.8663C127.533 43.8663 129.693 41.5988 129.693 38.8016C129.693 36.0045 127.533 33.737 124.868 33.737C122.202 33.737 120.042 36.0045 120.042 38.8016C120.042 41.5988 122.202 43.8663 124.868 43.8663Z" fill="#6EF1FA"/>
<path d="M124.31 34.9023C124.734 35.3473 123.936 36.1845 123.032 37.1272C122.128 38.0699 121.464 38.7491 121.046 38.3041C120.628 37.8591 121.013 36.7349 121.916 35.7981C122.82 34.8613 123.891 34.4573 124.31 34.9023Z" fill="white"/>
<path d="M118.274 33.1574C119.925 33.1574 121.264 31.7523 121.264 30.0191C121.264 28.2858 119.925 26.8807 118.274 26.8807C116.622 26.8807 115.283 28.2858 115.283 30.0191C115.283 31.7523 116.622 33.1574 118.274 33.1574Z" fill="#6EF1FA"/>
<g style="mix-blend-mode:screen">
<path d="M118.681 27.9348C119.105 28.3798 118.564 28.9535 117.956 29.5859C117.348 30.2182 116.89 30.6867 116.472 30.2417C116.053 29.7967 116.204 28.9184 116.818 28.2802C117.431 27.642 118.263 27.4898 118.687 27.9348H118.681Z" fill="white"/>
</g>
<path d="M125.052 28.6431C126.703 28.6431 128.042 27.2381 128.042 25.5048C128.042 23.7716 126.703 22.3665 125.052 22.3665C123.4 22.3665 122.061 23.7716 122.061 25.5048C122.061 27.2381 123.4 28.6431 125.052 28.6431Z" fill="#6EF1FA"/>
<path d="M125.458 23.4205C125.882 23.8655 125.341 24.4393 124.733 25.0717C124.125 25.704 123.667 26.1724 123.249 25.7274C122.831 25.2824 122.981 24.4042 123.595 23.766C124.209 23.1278 125.04 22.9755 125.464 23.4205H125.458Z" fill="white"/>
</svg>
